<svg xmlns="http://www.w3.org/2000/svg" xmlns:xlink="http://www.w3.org/1999/xlink" width="500" zoomAndPan="magnify" viewBox="0 0 375 119.999999" height="160" preserveAspectRatio="xMidYMid meet" version="1.0"><defs><g/></defs><g fill="#000000" fill-opacity="1"><g transform="translate(12.000002, 91.874997)"><g><path d="M 58.828125 0 L 38.15625 -36.25 L 57.65625 -70.703125 L 41.234375 -70.703125 L 29.25 -47.0625 L 17.28125 -70.703125 L 0.953125 -70.703125 L 20.453125 -36.140625 L -0.21875 0 L 16.109375 0 L 29.25 -25.125 L 42.5 0 Z M 58.828125 0 "/></g></g></g><g fill="#000000" fill-opacity="1"><g transform="translate(70.615824, 91.874997)"><g><path d="M 30.53125 0 L 47.59375 -51.203125 L 34.03125 -51.203125 L 23.640625 -15.265625 L 13.359375 -51.203125 L -0.21875 -51.203125 L 16.859375 0 Z M 30.53125 0 "/></g></g></g><g fill="#000000" fill-opacity="1"><g transform="translate(117.890071, 91.874997)"><g><path d="M 45.046875 0 L 45.046875 -34.34375 C 45.046875 -47.484375 36.25 -52.46875 25.125 -52.46875 C 18.546875 -52.46875 10.8125 -50.25 5.40625 -45.046875 L 10.171875 -36.359375 C 13.984375 -40.0625 18.34375 -41.875 22.796875 -41.875 C 28.828125 -41.875 32.21875 -38.484375 32.21875 -32.96875 L 32.21875 -26.1875 C 29.46875 -30.203125 24.0625 -32.21875 18.765625 -32.21875 C 10.703125 -32.21875 2.96875 -26.921875 2.96875 -15.6875 C 2.96875 -4.765625 10.703125 1.265625 18.765625 1.265625 C 23.953125 1.265625 29.359375 -1.0625 32.21875 -5.09375 L 32.21875 0 Z M 32.21875 -12.1875 C 30.53125 -9.015625 27.140625 -7.3125 23.640625 -7.3125 C 18.875 -7.3125 15.6875 -10.59375 15.6875 -15.46875 C 15.6875 -20.359375 18.875 -23.75 23.640625 -23.75 C 27.140625 -23.75 30.53125 -21.84375 32.21875 -18.765625 Z M 32.21875 -12.1875 "/></g></g></g><g fill="#000000" fill-opacity="1"><g transform="translate(168.662182, 91.874997)"><g><path d="M 18.4375 0 L 18.4375 -34.125 C 20.5625 -37.53125 25.328125 -40.28125 29.359375 -40.28125 C 30.53125 -40.28125 31.59375 -40.171875 32.4375 -39.96875 L 32.4375 -52.359375 C 26.921875 -52.359375 21.3125 -48.765625 18.4375 -44.09375 L 18.4375 -51.203125 L 5.71875 -51.203125 L 5.71875 0 Z M 18.4375 0 "/></g></g></g><g fill="#000000" fill-opacity="1"><g transform="translate(202.580924, 91.874997)"><g><path d="M 12.078125 -58.71875 C 16.328125 -58.71875 19.71875 -62.109375 19.71875 -66.359375 C 19.71875 -70.59375 16.328125 -74.09375 12.078125 -74.09375 C 7.953125 -74.09375 4.453125 -70.59375 4.453125 -66.359375 C 4.453125 -62.109375 7.953125 -58.71875 12.078125 -58.71875 Z M 18.4375 0 L 18.4375 -51.203125 L 5.71875 -51.203125 L 5.71875 0 Z M 18.4375 0 "/></g></g></g><g fill="#000000" fill-opacity="1"><g transform="translate(226.748029, 91.874997)"><g><path d="M 45.046875 0 L 45.046875 -34.34375 C 45.046875 -47.484375 36.25 -52.46875 25.125 -52.46875 C 18.546875 -52.46875 10.8125 -50.25 5.40625 -45.046875 L 10.171875 -36.359375 C 13.984375 -40.0625 18.34375 -41.875 22.796875 -41.875 C 28.828125 -41.875 32.21875 -38.484375 32.21875 -32.96875 L 32.21875 -26.1875 C 29.46875 -30.203125 24.0625 -32.21875 18.765625 -32.21875 C 10.703125 -32.21875 2.96875 -26.921875 2.96875 -15.6875 C 2.96875 -4.765625 10.703125 1.265625 18.765625 1.265625 C 23.953125 1.265625 29.359375 -1.0625 32.21875 -5.09375 L 32.21875 0 Z M 32.21875 -12.1875 C 30.53125 -9.015625 27.140625 -7.3125 23.640625 -7.3125 C 18.875 -7.3125 15.6875 -10.59375 15.6875 -15.46875 C 15.6875 -20.359375 18.875 -23.75 23.640625 -23.75 C 27.140625 -23.75 30.53125 -21.84375 32.21875 -18.765625 Z M 32.21875 -12.1875 "/></g></g></g><g fill="#000000" fill-opacity="1"><g transform="translate(277.520129, 91.874997)"><g><path d="M 20.984375 1.265625 C 25.65625 1.265625 28.9375 0 30.84375 -1.703125 L 28.203125 -11.453125 C 27.5625 -10.59375 25.96875 -9.96875 24.375 -9.96875 C 21.9375 -9.96875 20.671875 -11.984375 20.671875 -15.265625 L 20.671875 -40.0625 L 29.15625 -40.0625 L 29.15625 -51.203125 L 20.671875 -51.203125 L 20.671875 -65.1875 L 7.953125 -65.1875 L 7.953125 -51.203125 L 1.265625 -51.203125 L 1.265625 -40.0625 L 7.953125 -40.0625 L 7.953125 -12.296875 C 7.953125 -3.28125 12.078125 1.265625 20.984375 1.265625 Z M 20.984375 1.265625 "/></g></g></g><g fill="#000000" fill-opacity="1"><g transform="translate(309.106965, 91.874997)"><g><path d="M 3.078125 -25.65625 C 3.078125 -9.546875 12.515625 1.265625 26.921875 1.265625 C 33.8125 1.265625 40.703125 -1.375 45.265625 -6.359375 L 39.4375 -13.984375 C 36.5625 -10.8125 32.21875 -9.015625 28.296875 -9.015625 C 20.5625 -9.015625 16.4375 -14.515625 15.90625 -21.515625 L 48.015625 -21.515625 L 48.015625 -25.125 C 48.015625 -41.015625 40.0625 -52.46875 25.96875 -52.46875 C 11.765625 -52.46875 3.078125 -40.484375 3.078125 -25.65625 Z M 25.765625 -42.1875 C 33.171875 -42.1875 35.515625 -35.515625 35.71875 -30.203125 L 15.90625 -30.203125 C 16.109375 -35.515625 18.65625 -42.1875 25.765625 -42.1875 Z M 25.765625 -42.1875 "/></g></g></g><g fill="#000000" fill-opacity="1"><g transform="translate(359.882795, 91.874997)"><g/></g></g></svg>